<mxfile host="app.diagrams.net" modified="2022-05-30T09:06:19.731Z" agent="5.0 (Windows)" etag="4g3y6MDMGIO8UCSPmUro" version="15.5.2" type="github">
  <diagram id="C6Y98c8YEAc-3bW6HiJc" name="Page-1">
    <mxGraphModel dx="1017" dy="1984" grid="1" gridSize="10" guides="1" tooltips="1" connect="1" arrows="1" fold="1" page="1" pageScale="1" pageWidth="827" pageHeight="1169" math="0" shadow="0">
      <root>
        <mxCell id="0" />
        <mxCell id="1" parent="0" />
        <mxCell id="kyXJp2_cIQoAJYYYC7C--54" value="" style="rounded=1;arcSize=10;dashed=1;strokeColor=#ff0000;fillColor=none;gradientColor=none;dashPattern=8 4;strokeWidth=2;fontSize=13;fontColor=#000000;" parent="1" vertex="1">
          <mxGeometry x="115.62" y="230" width="594.75" height="160" as="geometry" />
        </mxCell>
        <mxCell id="kyXJp2_cIQoAJYYYC7C--9" value="PostgreSQL" style="rounded=1;arcSize=10;dashed=0;fillColor=none;gradientColor=none;strokeWidth=2;fontColor=#FFFFFF;" parent="1" vertex="1">
          <mxGeometry x="33" y="92" width="760" height="768" as="geometry" />
        </mxCell>
        <mxCell id="kyXJp2_cIQoAJYYYC7C--21" value="" style="rounded=1;arcSize=10;dashed=1;fillColor=none;gradientColor=none;dashPattern=1 1;strokeWidth=2;" parent="1" vertex="1">
          <mxGeometry x="13" y="50" width="800" height="840" as="geometry" />
        </mxCell>
        <mxCell id="kyXJp2_cIQoAJYYYC7C--6" value="" style="rounded=1;arcSize=10;dashed=1;strokeColor=#F59D56;fillColor=none;gradientColor=none;dashPattern=8 4;strokeWidth=2;" parent="1" vertex="1">
          <mxGeometry x="60" y="130" width="290" height="690" as="geometry" />
        </mxCell>
        <mxCell id="kyXJp2_cIQoAJYYYC7C--14" value="" style="rounded=1;arcSize=10;dashed=0;fillColor=none;gradientColor=none;strokeWidth=2;" parent="1" vertex="1">
          <mxGeometry x="105" y="210" width="200" height="200" as="geometry" />
        </mxCell>
        <mxCell id="kyXJp2_cIQoAJYYYC7C--35" value="" style="outlineConnect=0;dashed=0;verticalLabelPosition=bottom;verticalAlign=top;align=center;html=1;shape=mxgraph.aws3.instance;fillColor=#F58534;gradientColor=none;fontSize=15;fontColor=#FFFFFF;" parent="1" vertex="1">
          <mxGeometry x="129.5" y="243" width="60" height="63" as="geometry" />
        </mxCell>
        <mxCell id="kyXJp2_cIQoAJYYYC7C--58" value="" style="rounded=1;arcSize=10;dashed=1;strokeColor=#ff0000;fillColor=none;gradientColor=none;dashPattern=8 4;strokeWidth=2;fontSize=13;fontColor=#000000;" parent="1" vertex="1">
          <mxGeometry x="121.5" y="231.5" width="78.5" height="80" as="geometry" />
        </mxCell>
        <mxCell id="kyXJp2_cIQoAJYYYC7C--38" value="&lt;div style=&quot;font-size: 16px&quot;&gt;Bastion&lt;/div&gt;&lt;div style=&quot;font-size: 16px&quot;&gt;EC2&lt;br&gt;&lt;/div&gt;&lt;div style=&quot;font-size: 16px&quot;&gt;&lt;br style=&quot;font-size: 16px&quot;&gt;&lt;/div&gt;" style="text;html=1;align=center;verticalAlign=middle;resizable=0;points=[];autosize=1;strokeColor=none;fillColor=none;fontSize=16;fontColor=#000000;" parent="1" vertex="1">
          <mxGeometry x="123.5" y="252" width="70" height="60" as="geometry" />
        </mxCell>
        <mxCell id="kyXJp2_cIQoAJYYYC7C--59" value="&lt;div&gt;&lt;span class=&quot;pl-s&quot;&gt;sec-gr-public&lt;/span&gt;&lt;/div&gt;" style="text;whiteSpace=wrap;html=1;fontSize=13;fontColor=#000000;" parent="1" vertex="1">
          <mxGeometry x="121.5" y="303" width="230" height="30" as="geometry" />
        </mxCell>
        <mxCell id="kyXJp2_cIQoAJYYYC7C--39" value="" style="rounded=1;arcSize=10;dashed=1;strokeColor=#ff0000;fillColor=none;gradientColor=none;dashPattern=8 4;strokeWidth=2;fontSize=16;fontColor=#000000;" parent="1" vertex="1">
          <mxGeometry x="120" y="560" width="580" height="159.5" as="geometry" />
        </mxCell>
        <mxCell id="kyXJp2_cIQoAJYYYC7C--33" value="" style="outlineConnect=0;dashed=0;verticalLabelPosition=bottom;verticalAlign=top;align=center;html=1;shape=mxgraph.aws3.sql_slave;fillColor=#2E73B8;gradientColor=none;" parent="1" vertex="1">
          <mxGeometry x="154.75" y="590.5" width="90" height="89.5" as="geometry" />
        </mxCell>
        <mxCell id="kyXJp2_cIQoAJYYYC7C--16" value="" style="rounded=1;arcSize=10;dashed=0;fillColor=none;gradientColor=none;strokeWidth=2;" parent="1" vertex="1">
          <mxGeometry x="520" y="530" width="200" height="200" as="geometry" />
        </mxCell>
        <mxCell id="kyXJp2_cIQoAJYYYC7C--7" value="" style="rounded=1;arcSize=10;dashed=1;strokeColor=#F59D56;fillColor=none;gradientColor=none;dashPattern=8 4;strokeWidth=2;" parent="1" vertex="1">
          <mxGeometry x="480" y="130" width="280" height="690" as="geometry" />
        </mxCell>
        <mxCell id="kyXJp2_cIQoAJYYYC7C--8" value="" style="outlineConnect=0;dashed=0;verticalLabelPosition=bottom;verticalAlign=top;align=center;html=1;shape=mxgraph.aws3.virtual_private_cloud;fillColor=#F58534;gradientColor=none;" parent="1" vertex="1">
          <mxGeometry x="50" y="70" width="79.5" height="54" as="geometry" />
        </mxCell>
        <mxCell id="kyXJp2_cIQoAJYYYC7C--17" value="" style="rounded=1;arcSize=10;dashed=0;fillColor=none;gradientColor=none;strokeWidth=2;" parent="1" vertex="1">
          <mxGeometry x="105" y="530" width="200" height="200" as="geometry" />
        </mxCell>
        <mxCell id="kyXJp2_cIQoAJYYYC7C--18" value="" style="rounded=1;arcSize=10;dashed=0;fillColor=none;gradientColor=none;strokeWidth=2;" parent="1" vertex="1">
          <mxGeometry x="520" y="210" width="200" height="200" as="geometry" />
        </mxCell>
        <mxCell id="kyXJp2_cIQoAJYYYC7C--20" value="" style="outlineConnect=0;dashed=0;verticalLabelPosition=bottom;verticalAlign=top;align=center;html=1;shape=mxgraph.aws3.sql_slave;fillColor=#2E73B8;gradientColor=none;" parent="1" vertex="1">
          <mxGeometry x="565" y="590.5" width="90" height="89.5" as="geometry" />
        </mxCell>
        <mxCell id="kyXJp2_cIQoAJYYYC7C--11" value="" style="outlineConnect=0;dashed=0;verticalLabelPosition=bottom;verticalAlign=top;align=center;html=1;shape=mxgraph.aws3.cloud_2;fillColor=#F58534;gradientColor=none;" parent="1" vertex="1">
          <mxGeometry x="105" y="20" width="50" height="50" as="geometry" />
        </mxCell>
        <mxCell id="kyXJp2_cIQoAJYYYC7C--22" value="us-east-1" style="text;html=1;align=center;verticalAlign=middle;resizable=0;points=[];autosize=1;strokeColor=none;fillColor=none;fontSize=16;" parent="1" vertex="1">
          <mxGeometry x="155" y="50" width="80" height="20" as="geometry" />
        </mxCell>
        <mxCell id="kyXJp2_cIQoAJYYYC7C--23" value="10.6.0.0/16" style="text;html=1;align=center;verticalAlign=middle;resizable=0;points=[];autosize=1;strokeColor=none;fillColor=none;fontSize=16;" parent="1" vertex="1">
          <mxGeometry x="119.75" y="95" width="100" height="20" as="geometry" />
        </mxCell>
        <mxCell id="kyXJp2_cIQoAJYYYC7C--28" value="" style="endArrow=classic;startArrow=classic;html=1;rounded=0;fontSize=16;exitX=0.5;exitY=0;exitDx=0;exitDy=0;entryX=0.5;entryY=1;entryDx=0;entryDy=0;" parent="1" source="kyXJp2_cIQoAJYYYC7C--17" target="kyXJp2_cIQoAJYYYC7C--14" edge="1">
          <mxGeometry width="50" height="50" relative="1" as="geometry">
            <mxPoint x="380" y="420" as="sourcePoint" />
            <mxPoint x="430" y="370" as="targetPoint" />
          </mxGeometry>
        </mxCell>
        <mxCell id="kyXJp2_cIQoAJYYYC7C--29" value="" style="endArrow=classic;startArrow=classic;html=1;rounded=0;fontSize=16;exitX=0.5;exitY=0;exitDx=0;exitDy=0;entryX=0.5;entryY=1;entryDx=0;entryDy=0;" parent="1" edge="1">
          <mxGeometry width="50" height="50" relative="1" as="geometry">
            <mxPoint x="619.29" y="530" as="sourcePoint" />
            <mxPoint x="619.29" y="410" as="targetPoint" />
          </mxGeometry>
        </mxCell>
        <mxCell id="kyXJp2_cIQoAJYYYC7C--31" value="PostgreSQL" style="text;html=1;align=center;verticalAlign=middle;resizable=0;points=[];autosize=1;strokeColor=none;fillColor=none;fontSize=15;fontColor=#FFFFFF;" parent="1" vertex="1">
          <mxGeometry x="560" y="600" width="100" height="20" as="geometry" />
        </mxCell>
        <mxCell id="kyXJp2_cIQoAJYYYC7C--32" value="PostgreSQL" style="text;html=1;align=center;verticalAlign=middle;resizable=0;points=[];autosize=1;strokeColor=none;fillColor=none;fontSize=15;fontColor=#FFFFFF;" parent="1" vertex="1">
          <mxGeometry x="149.75" y="600" width="100" height="20" as="geometry" />
        </mxCell>
        <mxCell id="kyXJp2_cIQoAJYYYC7C--34" value="" style="rounded=1;arcSize=10;dashed=1;fillColor=none;gradientColor=none;dashPattern=8 3 1 3;strokeWidth=2;fontSize=15;fontColor=#FFFFFF;" parent="1" vertex="1">
          <mxGeometry x="129.5" y="580" width="560.5" height="120" as="geometry" />
        </mxCell>
        <mxCell id="kyXJp2_cIQoAJYYYC7C--41" value="&lt;span class=&quot;pl-s&quot;&gt;vpc-terraform-homework-1&lt;/span&gt;" style="text;whiteSpace=wrap;html=1;fontSize=16;fontColor=#000000;" parent="1" vertex="1">
          <mxGeometry x="520" y="90" width="210" height="30" as="geometry" />
        </mxCell>
        <mxCell id="kyXJp2_cIQoAJYYYC7C--42" value="" style="outlineConnect=0;dashed=0;verticalLabelPosition=bottom;verticalAlign=top;align=center;html=1;shape=mxgraph.aws3.internet_gateway;fillColor=#F58534;gradientColor=none;fontSize=16;fontColor=#000000;" parent="1" vertex="1">
          <mxGeometry x="388" y="68" width="50" height="52" as="geometry" />
        </mxCell>
        <mxCell id="kyXJp2_cIQoAJYYYC7C--44" value="" style="ellipse;shape=cloud;whiteSpace=wrap;html=1;fontSize=16;fontColor=#000000;" parent="1" vertex="1">
          <mxGeometry x="346.75" y="-50" width="120" height="80" as="geometry" />
        </mxCell>
        <mxCell id="kyXJp2_cIQoAJYYYC7C--47" value="" style="endArrow=classic;startArrow=classic;html=1;rounded=0;fontSize=16;fontColor=#000000;entryX=0.55;entryY=0.95;entryDx=0;entryDy=0;entryPerimeter=0;" parent="1" target="kyXJp2_cIQoAJYYYC7C--44" edge="1">
          <mxGeometry width="50" height="50" relative="1" as="geometry">
            <mxPoint x="413" y="70" as="sourcePoint" />
            <mxPoint x="470" y="250" as="targetPoint" />
          </mxGeometry>
        </mxCell>
        <mxCell id="kyXJp2_cIQoAJYYYC7C--48" value="&lt;span class=&quot;pl-s&quot; style=&quot;font-size: 13px;&quot;&gt;igw-terraform-homework-1&lt;/span&gt;" style="text;whiteSpace=wrap;html=1;fontSize=13;fontColor=#000000;" parent="1" vertex="1">
          <mxGeometry x="438" y="60" width="210" height="30" as="geometry" />
        </mxCell>
        <mxCell id="kyXJp2_cIQoAJYYYC7C--49" value="&lt;span class=&quot;pl-s&quot;&gt;&lt;span class=&quot;pl-pds&quot;&gt;&lt;/span&gt;subnet-public-a-terraform-homework-1&lt;/span&gt;" style="text;whiteSpace=wrap;html=1;fontSize=13;fontColor=#000000;rotation=0;" parent="1" vertex="1">
          <mxGeometry x="90" y="180" width="250" height="30" as="geometry" />
        </mxCell>
        <mxCell id="kyXJp2_cIQoAJYYYC7C--50" value="&lt;span class=&quot;pl-s&quot;&gt;&lt;span class=&quot;pl-pds&quot;&gt;&lt;/span&gt;subnet-public-b-terraform-homework-1&lt;/span&gt;" style="text;whiteSpace=wrap;html=1;fontSize=13;fontColor=#000000;" parent="1" vertex="1">
          <mxGeometry x="500" y="180" width="250" height="30" as="geometry" />
        </mxCell>
        <mxCell id="kyXJp2_cIQoAJYYYC7C--51" value="&#xa;&lt;span class=&quot;pl-s&quot;&gt;&lt;span class=&quot;pl-pds&quot;&gt;&lt;/span&gt;subnet-private-a-terraform-homework-1&lt;/span&gt;&#xa;&#xa;" style="text;whiteSpace=wrap;html=1;fontSize=13;fontColor=#000000;" parent="1" vertex="1">
          <mxGeometry x="90" y="713" width="250" height="30" as="geometry" />
        </mxCell>
        <mxCell id="kyXJp2_cIQoAJYYYC7C--52" value="&lt;span class=&quot;pl-s&quot;&gt;&lt;span class=&quot;pl-pds&quot;&gt;&lt;/span&gt;subnet-private-b-terraform-homework-1&lt;/span&gt;" style="text;whiteSpace=wrap;html=1;fontSize=13;fontColor=#000000;" parent="1" vertex="1">
          <mxGeometry x="500" y="730" width="250" height="30" as="geometry" />
        </mxCell>
        <mxCell id="kyXJp2_cIQoAJYYYC7C--53" value="&lt;span class=&quot;pl-s&quot;&gt;&lt;span class=&quot;pl-pds&quot;&gt;&lt;/span&gt;ecs-sec-gr-terraform-homework-1&lt;/span&gt;" style="text;whiteSpace=wrap;html=1;fontSize=13;fontColor=#000000;" parent="1" vertex="1">
          <mxGeometry x="310" y="390" width="230" height="30" as="geometry" />
        </mxCell>
        <mxCell id="kyXJp2_cIQoAJYYYC7C--55" value="&lt;span class=&quot;pl-s&quot;&gt;&lt;span class=&quot;pl-pds&quot;&gt;&lt;/span&gt;rds-sub-gr-terraform-homework-1&lt;span class=&quot;pl-pds&quot;&gt;&lt;/span&gt;&lt;/span&gt;" style="text;whiteSpace=wrap;html=1;fontSize=13;fontColor=#000000;" parent="1" vertex="1">
          <mxGeometry x="320" y="714.5" width="220" height="30" as="geometry" />
        </mxCell>
        <mxCell id="kyXJp2_cIQoAJYYYC7C--56" value="&lt;span class=&quot;pl-s&quot;&gt;rds-terraform-homework-1&lt;/span&gt;" style="text;whiteSpace=wrap;html=1;fontSize=13;fontColor=#000000;" parent="1" vertex="1">
          <mxGeometry x="140" y="670" width="180" height="30" as="geometry" />
        </mxCell>
        <mxCell id="kyXJp2_cIQoAJYYYC7C--57" value="&lt;span class=&quot;pl-s&quot;&gt;rds-terraform-homework-1&lt;/span&gt;" style="text;whiteSpace=wrap;html=1;fontSize=13;fontColor=#000000;" parent="1" vertex="1">
          <mxGeometry x="530" y="670" width="180" height="30" as="geometry" />
        </mxCell>
        <mxCell id="kyXJp2_cIQoAJYYYC7C--60" value="" style="outlineConnect=0;dashed=0;verticalLabelPosition=bottom;verticalAlign=top;align=center;html=1;shape=mxgraph.aws3.ec2_compute_container;fillColor=#F58534;gradientColor=none;fontSize=13;fontColor=#000000;" parent="1" vertex="1">
          <mxGeometry x="540" y="275" width="70" height="67.25" as="geometry" />
        </mxCell>
        <mxCell id="kyXJp2_cIQoAJYYYC7C--61" value="" style="outlineConnect=0;dashed=0;verticalLabelPosition=bottom;verticalAlign=top;align=center;html=1;shape=mxgraph.aws3.ec2_compute_container;fillColor=#F58534;gradientColor=none;fontSize=13;fontColor=#000000;" parent="1" vertex="1">
          <mxGeometry x="219.75" y="275" width="70.25" height="70" as="geometry" />
        </mxCell>
        <mxCell id="kyXJp2_cIQoAJYYYC7C--62" value="" style="rounded=1;arcSize=10;dashed=1;fillColor=none;gradientColor=none;dashPattern=8 3 1 3;strokeWidth=2;fontSize=13;fontColor=#000000;" parent="1" vertex="1">
          <mxGeometry x="210" y="260" width="420" height="110" as="geometry" />
        </mxCell>
        <mxCell id="kyXJp2_cIQoAJYYYC7C--63" value="" style="outlineConnect=0;dashed=0;verticalLabelPosition=bottom;verticalAlign=top;align=center;html=1;shape=mxgraph.aws3.elastic_ip;fillColor=#F58534;gradientColor=none;fontSize=13;fontColor=#000000;rotation=-225;" parent="1" vertex="1">
          <mxGeometry x="312.79" y="132.46" width="90" height="21" as="geometry" />
        </mxCell>
        <mxCell id="kyXJp2_cIQoAJYYYC7C--64" value="" style="outlineConnect=0;dashed=0;verticalLabelPosition=bottom;verticalAlign=top;align=center;html=1;shape=mxgraph.aws3.elastic_ip;fillColor=#F58534;gradientColor=none;fontSize=13;fontColor=#000000;rotation=49;" parent="1" vertex="1">
          <mxGeometry x="424.94" y="132.45" width="88.5" height="21" as="geometry" />
        </mxCell>
        <mxCell id="dELmZKDiE_pVwT5EJmm5-1" value="10.6.11.0/24" style="text;html=1;align=center;verticalAlign=middle;resizable=0;points=[];autosize=1;strokeColor=none;fillColor=none;fontSize=16;" vertex="1" parent="1">
          <mxGeometry x="565" y="210" width="100" height="20" as="geometry" />
        </mxCell>
        <mxCell id="dELmZKDiE_pVwT5EJmm5-3" value="10.6.10.0/24" style="text;html=1;align=center;verticalAlign=middle;resizable=0;points=[];autosize=1;strokeColor=none;fillColor=none;fontSize=16;" vertex="1" parent="1">
          <mxGeometry x="149.75" y="210" width="100" height="20" as="geometry" />
        </mxCell>
        <mxCell id="dELmZKDiE_pVwT5EJmm5-4" value="10.6.12.0/24" style="text;html=1;align=center;verticalAlign=middle;resizable=0;points=[];autosize=1;strokeColor=none;fillColor=none;fontSize=16;" vertex="1" parent="1">
          <mxGeometry x="149.75" y="530" width="100" height="20" as="geometry" />
        </mxCell>
        <mxCell id="dELmZKDiE_pVwT5EJmm5-5" value="&lt;span class=&quot;pl-s&quot;&gt;aws_ecs_cluster&lt;/span&gt;" style="text;whiteSpace=wrap;html=1;fontSize=13;fontColor=#000000;" vertex="1" parent="1">
          <mxGeometry x="365" y="340" width="120" height="30" as="geometry" />
        </mxCell>
        <mxCell id="dELmZKDiE_pVwT5EJmm5-9" value="" style="edgeStyle=orthogonalEdgeStyle;rounded=0;orthogonalLoop=1;jettySize=auto;html=1;fontSize=12;fontColor=#000000;" edge="1" parent="1" source="dELmZKDiE_pVwT5EJmm5-7" target="kyXJp2_cIQoAJYYYC7C--59">
          <mxGeometry relative="1" as="geometry" />
        </mxCell>
        <mxCell id="dELmZKDiE_pVwT5EJmm5-7" value="&lt;span class=&quot;pl-s&quot; style=&quot;font-size: 12px;&quot;&gt;aws_ecs_service&lt;/span&gt;" style="text;whiteSpace=wrap;html=1;fontSize=12;fontColor=#000000;" vertex="1" parent="1">
          <mxGeometry x="210" y="342" width="120" height="30" as="geometry" />
        </mxCell>
        <mxCell id="dELmZKDiE_pVwT5EJmm5-8" value="&lt;span class=&quot;pl-s&quot;&gt;aws_ecs_service&lt;/span&gt;" style="text;whiteSpace=wrap;html=1;fontSize=12;fontColor=#000000;" vertex="1" parent="1">
          <mxGeometry x="528" y="340" width="120" height="30" as="geometry" />
        </mxCell>
        <mxCell id="dELmZKDiE_pVwT5EJmm5-10" value="10.6.13.0/24" style="text;html=1;align=center;verticalAlign=middle;resizable=0;points=[];autosize=1;strokeColor=none;fillColor=none;fontSize=16;" vertex="1" parent="1">
          <mxGeometry x="565" y="530" width="100" height="20" as="geometry" />
        </mxCell>
      </root>
    </mxGraphModel>
  </diagram>
</mxfile>
